<svg id="visual" viewBox="0 0 900 600" width="900" height="600" xmlns="http://www.w3.org/2000/svg" xmlns:xlink="http://www.w3.org/1999/xlink" version="1.1"><rect x="0" y="0" width="900" height="600" fill="#001220"></rect><path d="M0 409L21.5 410.2C43 411.3 86 413.7 128.8 411.7C171.7 409.7 214.3 403.3 257.2 395.7C300 388 343 379 385.8 371.7C428.7 364.3 471.3 358.7 514.2 368.5C557 378.3 600 403.7 642.8 419.3C685.7 435 728.3 441 771.2 436.2C814 431.3 857 415.7 878.5 407.8L900 400L900 601L878.5 601C857 601 814 601 771.2 601C728.3 601 685.7 601 642.8 601C600 601 557 601 514.2 601C471.3 601 428.7 601 385.8 601C343 601 300 601 257.2 601C214.3 601 171.7 601 128.8 601C86 601 43 601 21.5 601L0 601Z" fill="#69fa98"></path><path d="M0 428L21.5 432C43 436 86 444 128.8 438.7C171.7 433.3 214.3 414.7 257.2 416C300 417.3 343 438.7 385.8 443C428.7 447.3 471.3 434.7 514.2 423.7C557 412.7 600 403.3 642.8 402C685.7 400.7 728.3 407.3 771.2 414.7C814 422 857 430 878.5 434L900 438L900 601L878.5 601C857 601 814 601 771.2 601C728.3 601 685.7 601 642.8 601C600 601 557 601 514.2 601C471.3 601 428.7 601 385.8 601C343 601 300 601 257.2 601C214.3 601 171.7 601 128.8 601C86 601 43 601 21.5 601L0 601Z" fill="#59ee7f"></path><path d="M0 503L21.5 500C43 497 86 491 128.8 481.3C171.7 471.7 214.3 458.3 257.2 459.3C300 460.3 343 475.7 385.8 479.8C428.7 484 471.3 477 514.2 480C557 483 600 496 642.8 495.8C685.7 495.7 728.3 482.3 771.2 477.2C814 472 857 475 878.5 476.5L900 478L900 601L878.5 601C857 601 814 601 771.2 601C728.3 601 685.7 601 642.8 601C600 601 557 601 514.2 601C471.3 601 428.7 601 385.8 601C343 601 300 601 257.2 601C214.3 601 171.7 601 128.8 601C86 601 43 601 21.5 601L0 601Z" fill="#49e164"></path><path d="M0 491L21.5 490.2C43 489.3 86 487.7 128.8 489.5C171.7 491.3 214.3 496.7 257.2 499.5C300 502.3 343 502.7 385.8 499.8C428.7 497 471.3 491 514.2 492C557 493 600 501 642.8 505.5C685.7 510 728.3 511 771.2 510.8C814 510.7 857 509.3 878.5 508.7L900 508L900 601L878.5 601C857 601 814 601 771.2 601C728.3 601 685.7 601 642.8 601C600 601 557 601 514.2 601C471.3 601 428.7 601 385.8 601C343 601 300 601 257.2 601C214.3 601 171.7 601 128.8 601C86 601 43 601 21.5 601L0 601Z" fill="#3ad447"></path><path d="M0 547L21.5 546.7C43 546.3 86 545.7 128.8 542.7C171.7 539.7 214.3 534.3 257.2 535.3C300 536.3 343 543.7 385.8 546.5C428.7 549.3 471.3 547.7 514.2 548.5C557 549.3 600 552.7 642.8 549.2C685.7 545.7 728.3 535.3 771.2 533.5C814 531.7 857 538.3 878.5 541.7L900 545L900 601L878.5 601C857 601 814 601 771.2 601C728.3 601 685.7 601 642.8 601C600 601 557 601 514.2 601C471.3 601 428.7 601 385.8 601C343 601 300 601 257.2 601C214.3 601 171.7 601 128.8 601C86 601 43 601 21.5 601L0 601Z" fill="#2ac724"></path></svg>